# xmcd CD database file
#
# Track frame offsets:
#	150
#	18082
#	40655
#	61930
#	79370
#	101995
#	126980
#	145327
#	170622
#	189862
#	215545
#	234840
#
# Disc length: 3386 seconds
#
# Revision: 2
# Processed by: cddbd v1.5PL3 Copyright (c) Steve Scherf et al.
# Submitted via: CDex 1.51
#
DISCID=a00d380c
DTITLE=The Whispers - Toast To The Ladies
DYEAR=1995
DGENRE=R&B
TTITLE0=Make Sweet Love To Me
TTITLE1=Every Little Thinkg You Do
TTITLE2=Heaven
TTITLE3=Crowd of 1
TTITLE4=Whisperin
TTITLE5=Come On Home
TTITLE6=Better Watch Your Heart
TTITLE7=Toast To The Ladies
TTITLE8=You're Driving Me Crazy
TTITLE9=Pissed Off (Baby Come Back)
TTITLE10=You're So Good To Me
TTITLE11=My Funny Valentine
EXTD=YEAR: 1995
EXTT0=
EXTT1=
EXTT2=
EXTT3=
EXTT4=
EXTT5=
EXTT6=
EXTT7=
EXTT8=
EXTT9=
EXTT10=
EXTT11=
PLAYORDER=
